<mxfile host="drawio-plugin" modified="2023-11-28T13:21:25.655Z" agent="5.0 (Macintosh; Intel Mac OS X 10_15_7) AppleWebKit/537.36 (KHTML, like Gecko) Chrome/111.0.0.0 Safari/537.36" etag="pOHgFreKNRPOFT6_EKo-" version="20.5.3" type="embed"><diagram id="23iRSUPoRavnBvh4doch" name="Page-1"><mxGraphModel dx="956" dy="612" grid="1" gridSize="10" guides="1" tooltips="1" connect="1" arrows="1" fold="1" page="1" pageScale="1" pageWidth="827" pageHeight="1169" math="0" shadow="0"><root><mxCell id="0"/><mxCell id="1" parent="0"/><mxCell id="2" value="db_book" style="shape=table;startSize=30;container=1;collapsible=0;childLayout=tableLayout;fontStyle=1;align=center;" vertex="1" parent="1"><mxGeometry x="270" y="30" width="240" height="150" as="geometry"/></mxCell><mxCell id="3" value="" style="shape=tableRow;horizontal=0;startSize=0;swimlaneHead=0;swimlaneBody=0;top=0;left=0;bottom=0;right=0;collapsible=0;dropTarget=0;fillColor=none;points=[[0,0.5],[1,0.5]];portConstraint=eastwest;" vertex="1" parent="2"><mxGeometry y="30" width="240" height="40" as="geometry"/></mxCell><mxCell id="4" value="id" style="shape=partialRectangle;html=1;whiteSpace=wrap;connectable=0;fillColor=none;top=0;left=0;bottom=0;right=0;overflow=hidden;" vertex="1" parent="3"><mxGeometry width="60" height="40" as="geometry"><mxRectangle width="60" height="40" as="alternateBounds"/></mxGeometry></mxCell><mxCell id="5" value="title" style="shape=partialRectangle;html=1;whiteSpace=wrap;connectable=0;fillColor=none;top=0;left=0;bottom=0;right=0;overflow=hidden;" vertex="1" parent="3"><mxGeometry x="60" width="60" height="40" as="geometry"><mxRectangle width="60" height="40" as="alternateBounds"/></mxGeometry></mxCell><mxCell id="6" value="price" style="shape=partialRectangle;html=1;whiteSpace=wrap;connectable=0;fillColor=none;top=0;left=0;bottom=0;right=0;overflow=hidden;" vertex="1" parent="3"><mxGeometry x="120" width="60" height="40" as="geometry"><mxRectangle width="60" height="40" as="alternateBounds"/></mxGeometry></mxCell><mxCell id="41" value="format" style="shape=partialRectangle;html=1;whiteSpace=wrap;connectable=0;fillColor=none;top=0;left=0;bottom=0;right=0;overflow=hidden;" vertex="1" parent="3"><mxGeometry x="180" width="60" height="40" as="geometry"><mxRectangle width="60" height="40" as="alternateBounds"/></mxGeometry></mxCell><mxCell id="7" value="" style="shape=tableRow;horizontal=0;startSize=0;swimlaneHead=0;swimlaneBody=0;top=0;left=0;bottom=0;right=0;collapsible=0;dropTarget=0;fillColor=none;points=[[0,0.5],[1,0.5]];portConstraint=eastwest;" vertex="1" parent="2"><mxGeometry y="70" width="240" height="40" as="geometry"/></mxCell><mxCell id="8" value="..." style="shape=partialRectangle;html=1;whiteSpace=wrap;connectable=0;fillColor=none;top=0;left=0;bottom=0;right=0;overflow=hidden;" vertex="1" parent="7"><mxGeometry width="60" height="40" as="geometry"><mxRectangle width="60" height="40" as="alternateBounds"/></mxGeometry></mxCell><mxCell id="9" value="..." style="shape=partialRectangle;html=1;whiteSpace=wrap;connectable=0;fillColor=none;top=0;left=0;bottom=0;right=0;overflow=hidden;" vertex="1" parent="7"><mxGeometry x="60" width="60" height="40" as="geometry"><mxRectangle width="60" height="40" as="alternateBounds"/></mxGeometry></mxCell><mxCell id="10" value="..." style="shape=partialRectangle;html=1;whiteSpace=wrap;connectable=0;fillColor=none;top=0;left=0;bottom=0;right=0;overflow=hidden;" vertex="1" parent="7"><mxGeometry x="120" width="60" height="40" as="geometry"><mxRectangle width="60" height="40" as="alternateBounds"/></mxGeometry></mxCell><mxCell id="42" value="..." style="shape=partialRectangle;html=1;whiteSpace=wrap;connectable=0;fillColor=none;top=0;left=0;bottom=0;right=0;overflow=hidden;" vertex="1" parent="7"><mxGeometry x="180" width="60" height="40" as="geometry"><mxRectangle width="60" height="40" as="alternateBounds"/></mxGeometry></mxCell><mxCell id="11" value="" style="shape=tableRow;horizontal=0;startSize=0;swimlaneHead=0;swimlaneBody=0;top=0;left=0;bottom=0;right=0;collapsible=0;dropTarget=0;fillColor=none;points=[[0,0.5],[1,0.5]];portConstraint=eastwest;" vertex="1" parent="2"><mxGeometry y="110" width="240" height="40" as="geometry"/></mxCell><mxCell id="12" value="..." style="shape=partialRectangle;html=1;whiteSpace=wrap;connectable=0;fillColor=none;top=0;left=0;bottom=0;right=0;overflow=hidden;" vertex="1" parent="11"><mxGeometry width="60" height="40" as="geometry"><mxRectangle width="60" height="40" as="alternateBounds"/></mxGeometry></mxCell><mxCell id="13" value="..." style="shape=partialRectangle;html=1;whiteSpace=wrap;connectable=0;fillColor=none;top=0;left=0;bottom=0;right=0;overflow=hidden;" vertex="1" parent="11"><mxGeometry x="60" width="60" height="40" as="geometry"><mxRectangle width="60" height="40" as="alternateBounds"/></mxGeometry></mxCell><mxCell id="14" value="..." style="shape=partialRectangle;html=1;whiteSpace=wrap;connectable=0;fillColor=none;top=0;left=0;bottom=0;right=0;overflow=hidden;" vertex="1" parent="11"><mxGeometry x="120" width="60" height="40" as="geometry"><mxRectangle width="60" height="40" as="alternateBounds"/></mxGeometry></mxCell><mxCell id="43" value="..." style="shape=partialRectangle;html=1;whiteSpace=wrap;connectable=0;fillColor=none;top=0;left=0;bottom=0;right=0;overflow=hidden;" vertex="1" parent="11"><mxGeometry x="180" width="60" height="40" as="geometry"><mxRectangle width="60" height="40" as="alternateBounds"/></mxGeometry></mxCell><mxCell id="15" value="db_literaryformat" style="shape=table;startSize=30;container=1;collapsible=0;childLayout=tableLayout;fontStyle=1;align=center;" vertex="1" parent="1"><mxGeometry x="10" y="30" width="120" height="150" as="geometry"/></mxCell><mxCell id="16" value="" style="shape=tableRow;horizontal=0;startSize=0;swimlaneHead=0;swimlaneBody=0;top=0;left=0;bottom=0;right=0;collapsible=0;dropTarget=0;fillColor=none;points=[[0,0.5],[1,0.5]];portConstraint=eastwest;" vertex="1" parent="15"><mxGeometry y="30" width="120" height="40" as="geometry"/></mxCell><mxCell id="17" value="id" style="shape=partialRectangle;html=1;whiteSpace=wrap;connectable=0;fillColor=none;top=0;left=0;bottom=0;right=0;overflow=hidden;" vertex="1" parent="16"><mxGeometry width="60" height="40" as="geometry"><mxRectangle width="60" height="40" as="alternateBounds"/></mxGeometry></mxCell><mxCell id="18" value="name" style="shape=partialRectangle;html=1;whiteSpace=wrap;connectable=0;fillColor=none;top=0;left=0;bottom=0;right=0;overflow=hidden;" vertex="1" parent="16"><mxGeometry x="60" width="60" height="40" as="geometry"><mxRectangle width="60" height="40" as="alternateBounds"/></mxGeometry></mxCell><mxCell id="20" value="" style="shape=tableRow;horizontal=0;startSize=0;swimlaneHead=0;swimlaneBody=0;top=0;left=0;bottom=0;right=0;collapsible=0;dropTarget=0;fillColor=none;points=[[0,0.5],[1,0.5]];portConstraint=eastwest;" vertex="1" parent="15"><mxGeometry y="70" width="120" height="40" as="geometry"/></mxCell><mxCell id="21" value="..." style="shape=partialRectangle;html=1;whiteSpace=wrap;connectable=0;fillColor=none;top=0;left=0;bottom=0;right=0;overflow=hidden;" vertex="1" parent="20"><mxGeometry width="60" height="40" as="geometry"><mxRectangle width="60" height="40" as="alternateBounds"/></mxGeometry></mxCell><mxCell id="22" value="..." style="shape=partialRectangle;html=1;whiteSpace=wrap;connectable=0;fillColor=none;top=0;left=0;bottom=0;right=0;overflow=hidden;" vertex="1" parent="20"><mxGeometry x="60" width="60" height="40" as="geometry"><mxRectangle width="60" height="40" as="alternateBounds"/></mxGeometry></mxCell><mxCell id="24" value="" style="shape=tableRow;horizontal=0;startSize=0;swimlaneHead=0;swimlaneBody=0;top=0;left=0;bottom=0;right=0;collapsible=0;dropTarget=0;fillColor=none;points=[[0,0.5],[1,0.5]];portConstraint=eastwest;" vertex="1" parent="15"><mxGeometry y="110" width="120" height="40" as="geometry"/></mxCell><mxCell id="25" value="..." style="shape=partialRectangle;html=1;whiteSpace=wrap;connectable=0;fillColor=none;top=0;left=0;bottom=0;right=0;overflow=hidden;" vertex="1" parent="24"><mxGeometry width="60" height="40" as="geometry"><mxRectangle width="60" height="40" as="alternateBounds"/></mxGeometry></mxCell><mxCell id="26" value="..." style="shape=partialRectangle;html=1;whiteSpace=wrap;connectable=0;fillColor=none;top=0;left=0;bottom=0;right=0;overflow=hidden;" vertex="1" parent="24"><mxGeometry x="60" width="60" height="40" as="geometry"><mxRectangle width="60" height="40" as="alternateBounds"/></mxGeometry></mxCell><mxCell id="28" value="db_author" style="shape=table;startSize=30;container=1;collapsible=0;childLayout=tableLayout;fontStyle=1;align=center;" vertex="1" parent="1"><mxGeometry x="610" y="30" width="180" height="150" as="geometry"/></mxCell><mxCell id="29" value="" style="shape=tableRow;horizontal=0;startSize=0;swimlaneHead=0;swimlaneBody=0;top=0;left=0;bottom=0;right=0;collapsible=0;dropTarget=0;fillColor=none;points=[[0,0.5],[1,0.5]];portConstraint=eastwest;" vertex="1" parent="28"><mxGeometry y="30" width="180" height="40" as="geometry"/></mxCell><mxCell id="30" value="id" style="shape=partialRectangle;html=1;whiteSpace=wrap;connectable=0;fillColor=none;top=0;left=0;bottom=0;right=0;overflow=hidden;" vertex="1" parent="29"><mxGeometry width="60" height="40" as="geometry"><mxRectangle width="60" height="40" as="alternateBounds"/></mxGeometry></mxCell><mxCell id="31" value="first_name" style="shape=partialRectangle;html=1;whiteSpace=wrap;connectable=0;fillColor=none;top=0;left=0;bottom=0;right=0;overflow=hidden;" vertex="1" parent="29"><mxGeometry x="60" width="60" height="40" as="geometry"><mxRectangle width="60" height="40" as="alternateBounds"/></mxGeometry></mxCell><mxCell id="32" value="last_name" style="shape=partialRectangle;html=1;whiteSpace=wrap;connectable=0;fillColor=none;top=0;left=0;bottom=0;right=0;overflow=hidden;" vertex="1" parent="29"><mxGeometry x="120" width="60" height="40" as="geometry"><mxRectangle width="60" height="40" as="alternateBounds"/></mxGeometry></mxCell><mxCell id="33" value="" style="shape=tableRow;horizontal=0;startSize=0;swimlaneHead=0;swimlaneBody=0;top=0;left=0;bottom=0;right=0;collapsible=0;dropTarget=0;fillColor=none;points=[[0,0.5],[1,0.5]];portConstraint=eastwest;" vertex="1" parent="28"><mxGeometry y="70" width="180" height="40" as="geometry"/></mxCell><mxCell id="34" value="..." style="shape=partialRectangle;html=1;whiteSpace=wrap;connectable=0;fillColor=none;top=0;left=0;bottom=0;right=0;overflow=hidden;" vertex="1" parent="33"><mxGeometry width="60" height="40" as="geometry"><mxRectangle width="60" height="40" as="alternateBounds"/></mxGeometry></mxCell><mxCell id="35" value="..." style="shape=partialRectangle;html=1;whiteSpace=wrap;connectable=0;fillColor=none;top=0;left=0;bottom=0;right=0;overflow=hidden;" vertex="1" parent="33"><mxGeometry x="60" width="60" height="40" as="geometry"><mxRectangle width="60" height="40" as="alternateBounds"/></mxGeometry></mxCell><mxCell id="36" value="..." style="shape=partialRectangle;html=1;whiteSpace=wrap;connectable=0;fillColor=none;top=0;left=0;bottom=0;right=0;overflow=hidden;" vertex="1" parent="33"><mxGeometry x="120" width="60" height="40" as="geometry"><mxRectangle width="60" height="40" as="alternateBounds"/></mxGeometry></mxCell><mxCell id="37" value="" style="shape=tableRow;horizontal=0;startSize=0;swimlaneHead=0;swimlaneBody=0;top=0;left=0;bottom=0;right=0;collapsible=0;dropTarget=0;fillColor=none;points=[[0,0.5],[1,0.5]];portConstraint=eastwest;" vertex="1" parent="28"><mxGeometry y="110" width="180" height="40" as="geometry"/></mxCell><mxCell id="38" value="..." style="shape=partialRectangle;html=1;whiteSpace=wrap;connectable=0;fillColor=none;top=0;left=0;bottom=0;right=0;overflow=hidden;" vertex="1" parent="37"><mxGeometry width="60" height="40" as="geometry"><mxRectangle width="60" height="40" as="alternateBounds"/></mxGeometry></mxCell><mxCell id="39" value="..." style="shape=partialRectangle;html=1;whiteSpace=wrap;connectable=0;fillColor=none;top=0;left=0;bottom=0;right=0;overflow=hidden;" vertex="1" parent="37"><mxGeometry x="60" width="60" height="40" as="geometry"><mxRectangle width="60" height="40" as="alternateBounds"/></mxGeometry></mxCell><mxCell id="40" value="..." style="shape=partialRectangle;html=1;whiteSpace=wrap;connectable=0;fillColor=none;top=0;left=0;bottom=0;right=0;overflow=hidden;" vertex="1" parent="37"><mxGeometry x="120" width="60" height="40" as="geometry"><mxRectangle width="60" height="40" as="alternateBounds"/></mxGeometry></mxCell><mxCell id="44" value="db_book_authors" style="shape=table;startSize=30;container=1;collapsible=0;childLayout=tableLayout;fontStyle=1;align=center;" vertex="1" parent="1"><mxGeometry x="470" y="270" width="180" height="150" as="geometry"/></mxCell><mxCell id="45" value="" style="shape=tableRow;horizontal=0;startSize=0;swimlaneHead=0;swimlaneBody=0;top=0;left=0;bottom=0;right=0;collapsible=0;dropTarget=0;fillColor=none;points=[[0,0.5],[1,0.5]];portConstraint=eastwest;" vertex="1" parent="44"><mxGeometry y="30" width="180" height="40" as="geometry"/></mxCell><mxCell id="46" value="id" style="shape=partialRectangle;html=1;whiteSpace=wrap;connectable=0;fillColor=none;top=0;left=0;bottom=0;right=0;overflow=hidden;" vertex="1" parent="45"><mxGeometry width="60" height="40" as="geometry"><mxRectangle width="60" height="40" as="alternateBounds"/></mxGeometry></mxCell><mxCell id="47" value="book_id" style="shape=partialRectangle;html=1;whiteSpace=wrap;connectable=0;fillColor=none;top=0;left=0;bottom=0;right=0;overflow=hidden;" vertex="1" parent="45"><mxGeometry x="60" width="60" height="40" as="geometry"><mxRectangle width="60" height="40" as="alternateBounds"/></mxGeometry></mxCell><mxCell id="48" value="author_id" style="shape=partialRectangle;html=1;whiteSpace=wrap;connectable=0;fillColor=none;top=0;left=0;bottom=0;right=0;overflow=hidden;" vertex="1" parent="45"><mxGeometry x="120" width="60" height="40" as="geometry"><mxRectangle width="60" height="40" as="alternateBounds"/></mxGeometry></mxCell><mxCell id="49" value="" style="shape=tableRow;horizontal=0;startSize=0;swimlaneHead=0;swimlaneBody=0;top=0;left=0;bottom=0;right=0;collapsible=0;dropTarget=0;fillColor=none;points=[[0,0.5],[1,0.5]];portConstraint=eastwest;" vertex="1" parent="44"><mxGeometry y="70" width="180" height="40" as="geometry"/></mxCell><mxCell id="50" value="..." style="shape=partialRectangle;html=1;whiteSpace=wrap;connectable=0;fillColor=none;top=0;left=0;bottom=0;right=0;overflow=hidden;" vertex="1" parent="49"><mxGeometry width="60" height="40" as="geometry"><mxRectangle width="60" height="40" as="alternateBounds"/></mxGeometry></mxCell><mxCell id="51" value="..." style="shape=partialRectangle;html=1;whiteSpace=wrap;connectable=0;fillColor=none;top=0;left=0;bottom=0;right=0;overflow=hidden;" vertex="1" parent="49"><mxGeometry x="60" width="60" height="40" as="geometry"><mxRectangle width="60" height="40" as="alternateBounds"/></mxGeometry></mxCell><mxCell id="52" value="..." style="shape=partialRectangle;html=1;whiteSpace=wrap;connectable=0;fillColor=none;top=0;left=0;bottom=0;right=0;overflow=hidden;" vertex="1" parent="49"><mxGeometry x="120" width="60" height="40" as="geometry"><mxRectangle width="60" height="40" as="alternateBounds"/></mxGeometry></mxCell><mxCell id="53" value="" style="shape=tableRow;horizontal=0;startSize=0;swimlaneHead=0;swimlaneBody=0;top=0;left=0;bottom=0;right=0;collapsible=0;dropTarget=0;fillColor=none;points=[[0,0.5],[1,0.5]];portConstraint=eastwest;" vertex="1" parent="44"><mxGeometry y="110" width="180" height="40" as="geometry"/></mxCell><mxCell id="54" value="..." style="shape=partialRectangle;html=1;whiteSpace=wrap;connectable=0;fillColor=none;top=0;left=0;bottom=0;right=0;overflow=hidden;" vertex="1" parent="53"><mxGeometry width="60" height="40" as="geometry"><mxRectangle width="60" height="40" as="alternateBounds"/></mxGeometry></mxCell><mxCell id="55" value="..." style="shape=partialRectangle;html=1;whiteSpace=wrap;connectable=0;fillColor=none;top=0;left=0;bottom=0;right=0;overflow=hidden;" vertex="1" parent="53"><mxGeometry x="60" width="60" height="40" as="geometry"><mxRectangle width="60" height="40" as="alternateBounds"/></mxGeometry></mxCell><mxCell id="56" value="..." style="shape=partialRectangle;html=1;whiteSpace=wrap;connectable=0;fillColor=none;top=0;left=0;bottom=0;right=0;overflow=hidden;" vertex="1" parent="53"><mxGeometry x="120" width="60" height="40" as="geometry"><mxRectangle width="60" height="40" as="alternateBounds"/></mxGeometry></mxCell><mxCell id="60" value="&lt;font style=&quot;font-size: 18px;&quot;&gt;&amp;nbsp; &amp;nbsp;removal strategy:&lt;br&gt;&amp;nbsp; &amp;nbsp;- CASCSDE&lt;br&gt;&amp;nbsp; &amp;nbsp;- RESTRICT&lt;br&gt;&lt;/font&gt;&lt;div style=&quot;font-size: 18px;&quot;&gt;&lt;span style=&quot;background-color: initial;&quot;&gt;&lt;font style=&quot;font-size: 18px;&quot;&gt;&amp;nbsp; &amp;nbsp;...&lt;/font&gt;&lt;/span&gt;&lt;/div&gt;" style="rounded=1;whiteSpace=wrap;html=1;align=left;" vertex="1" parent="1"><mxGeometry x="140" y="170" width="230" height="120" as="geometry"/></mxCell><mxCell id="59" value="" style="curved=1;endArrow=classic;html=1;rounded=0;exitX=1;exitY=0.5;exitDx=0;exitDy=0;entryX=0;entryY=0.5;entryDx=0;entryDy=0;fillColor=#e3c800;strokeColor=#B09500;dashed=1;strokeWidth=3;" edge="1" parent="1" source="3" target="16"><mxGeometry width="50" height="50" relative="1" as="geometry"><mxPoint x="410" y="340" as="sourcePoint"/><mxPoint x="460" y="290" as="targetPoint"/><Array as="points"><mxPoint x="460" y="340"/></Array></mxGeometry></mxCell><mxCell id="61" value="" style="curved=1;endArrow=classic;html=1;rounded=0;dashed=1;strokeWidth=3;fontSize=18;entryX=0;entryY=0.5;entryDx=0;entryDy=0;exitX=0.528;exitY=0;exitDx=0;exitDy=0;exitPerimeter=0;fillColor=#fad7ac;strokeColor=#FFFF00;" edge="1" parent="1" source="49" target="7"><mxGeometry width="50" height="50" relative="1" as="geometry"><mxPoint x="290" y="430" as="sourcePoint"/><mxPoint x="340" y="380" as="targetPoint"/><Array as="points"><mxPoint x="370" y="320"/><mxPoint x="390" y="170"/></Array></mxGeometry></mxCell><mxCell id="62" value="" style="curved=1;endArrow=classic;html=1;rounded=0;dashed=1;strokeColor=#FFFF00;strokeWidth=3;fontSize=18;exitX=0.822;exitY=-0.025;exitDx=0;exitDy=0;exitPerimeter=0;entryX=0;entryY=0.5;entryDx=0;entryDy=0;" edge="1" parent="1" source="49" target="33"><mxGeometry width="50" height="50" relative="1" as="geometry"><mxPoint x="690" y="330" as="sourcePoint"/><mxPoint x="740" y="280" as="targetPoint"/><Array as="points"><mxPoint x="710" y="270"/><mxPoint x="550" y="190"/></Array></mxGeometry></mxCell></root></mxGraphModel></diagram></mxfile>